<?xml version="1.0" encoding="UTF-8"?>
<svg version="1.1" xmlns="http://www.w3.org/2000/svg" width="2250" height="644">
<path d="M0 0 C742.5 0 1485 0 2250 0 C2250 212.52 2250 425.04 2250 644 C1507.5 644 765 644 0 644 C0 431.48 0 218.96 0 0 Z " fill="#FEFEFE" transform="translate(0,0)"/>
<path d="M0 0 C173.58 0 347.16 0 526 0 C526 170.94 526 341.88 526 518 C352.42 518 178.84 518 0 518 C0 347.06 0 176.12 0 0 Z " fill="#5FD1C5" transform="translate(58,64)"/>
<path d="M0 0 C0 39.27 0 78.54 0 119 C-15.84 127.415 -15.84 127.415 -32 136 C-40.49191728 140.7992288 -40.49191728 140.7992288 -48.96875 145.625 C-56.91406715 150.11583143 -65.00321613 154.33726732 -73.07516479 158.5944519 C-82.92438889 163.79243094 -92.67316817 169.13393264 -102.34838867 174.65112305 C-107.80614024 177.76291568 -113.27897489 180.83717391 -118.8125 183.8125 C-119.97394531 184.43769531 -121.13539063 185.06289063 -122.33203125 185.70703125 C-125 187 -125 187 -127 187 C-119.49898785 195.63460562 -111.82801106 204.11047392 -104.09130859 212.53369141 C-98.96019722 218.12425172 -93.89429608 223.77254754 -88.828125 229.421875 C-84.74305238 233.97050196 -80.63574212 238.49740064 -76.5 243 C-70.89705348 249.09995079 -65.3578719 255.25561047 -59.828125 261.421875 C-55.27764629 266.48872009 -50.69394033 271.52362488 -46.08642578 276.53857422 C-42.4701998 280.47792546 -38.89117595 284.44926265 -35.3203125 288.4296875 C-32.68920144 291.34428527 -30.03341698 294.23533777 -27.375 297.125 C-23.81117542 301.00137651 -20.25742249 304.88120198 -16.87247372 308.91597176 C-15.00959615 311.06500748 -15.00959615 311.06500748 -12.7375803 313.02578545 C-7.77186763 317.72392919 -5.41248358 321.18032386 -4.91770935 328.08694458 C-4.89171241 330.85630109 -4.91336391 333.59771437 -4.97827148 336.36376953 C-4.98081467 337.89231719 -4.97937633 339.42087581 -4.97428894 340.94941711 C-4.97172131 345.07157443 -5.02438465 349.19134342 -5.08745456 353.3129487 C-5.14396802 357.63029052 -5.1490227 361.94769571 -5.15968323 366.26535034 C-5.18758346 374.42892218 -5.26133729 382.59140079 -5.35182863 390.75449264 C-5.45265512 400.05306251 -5.50196673 409.35168642 -5.54708755 418.65066743 C-5.64099512 437.76772991 -5.79915314 456.88377686 -6 476 C-7.13036154 475.04037743 -8.25942771 474.07922887 -9.38793945 473.11743164 C-10.01682571 472.58235489 -10.64571198 472.04727814 -11.2936554 471.49598694 C-13.09252264 469.91888353 -14.66181326 468.27943553 -16.1875 466.4375 C-19.32836144 462.74610554 -22.57813157 459.17634546 -25.875 455.625 C-30.96830986 450.1288384 -36.00182747 444.58296785 -41 439 C-45.80527265 433.64060582 -50.63064912 428.30128222 -55.5 423 C-61.10294652 416.90004921 -66.6421281 410.74438953 -72.171875 404.578125 C-76.72235371 399.51127991 -81.30605967 394.47637512 -85.91357422 389.46142578 C-89.5298002 385.52207454 -93.10882405 381.55073735 -96.6796875 377.5703125 C-99.31079783 374.65571553 -101.96652475 371.76460776 -104.625 368.875 C-107.6022264 365.63786909 -110.55952966 362.38862144 -113.4375 359.0625 C-117.01802312 354.93244815 -120.73579762 350.9339593 -124.45019531 346.92480469 C-129.01596642 341.99354346 -133.51744662 337.00702032 -138 332 C-142.80527265 326.64060582 -147.63064912 321.30128222 -152.5 316 C-158.10294652 309.90004921 -163.6421281 303.74438953 -169.171875 297.578125 C-173.72235371 292.51127991 -178.30605967 287.47637512 -182.91357422 282.46142578 C-186.5298002 278.52207454 -190.10882405 274.55073735 -193.6796875 270.5703125 C-196.31079904 267.6557142 -198.96662189 264.76469857 -201.625 261.875 C-205.82108174 257.30977843 -209.94167242 252.68790107 -214 248 C-215.31176715 246.49935908 -216.62425786 244.99935031 -217.9375 243.5 C-218.95833333 242.33333333 -219.97916667 241.16666667 -221 240 C-240.00990782 249.24651105 -258.54029262 259.41146972 -276.89282227 269.89331055 C-285.85953991 274.982983 -294.96815244 279.79072972 -304.08660889 284.60067749 C-312.71341633 289.15418613 -321.28052703 293.78260693 -329.75 298.625 C-337.90860639 303.2871668 -346.12388037 307.8309215 -354.39880371 312.28265381 C-355.66707864 312.96516969 -356.93458635 313.64911332 -358.20129395 314.33453369 C-359.96125049 315.28601786 -361.7246889 316.23105315 -363.48828125 317.17578125 C-364.50446533 317.72145752 -365.52064941 318.26713379 -366.56762695 318.8293457 C-369 320 -369 320 -371 320 C-371.23375216 304.71876964 -371.41001548 289.43762177 -371.51812172 274.1550045 C-371.569656 267.05861984 -371.63989039 259.9633468 -371.75439453 252.86767578 C-371.86483439 246.02059019 -371.92283162 239.17466038 -371.94877243 232.32674026 C-371.9672595 229.71347491 -372.00336202 227.10027328 -372.05730057 224.48749924 C-372.12984759 220.82800214 -372.13989424 217.17328331 -372.13525391 213.51318359 C-372.17120667 212.4313681 -372.20715942 211.34955261 -372.24420166 210.23495483 C-372.20222162 207.1777011 -372.07274632 204.86637681 -371 202 C-367.9658362 199.2581221 -364.72187414 197.63614696 -361 196 C-359.4372937 195.12879517 -359.4372937 195.12879517 -357.84301758 194.23999023 C-356.95251709 193.76762939 -356.0620166 193.29526855 -355.14453125 192.80859375 C-354.12278809 192.26356201 -353.10104492 191.71853027 -352.04833984 191.15698242 C-350.9805127 190.58955322 -349.91268555 190.02212402 -348.8125 189.4375 C-340.43613104 184.96043439 -332.11872984 180.40412818 -323.875 175.6875 C-313.28851549 169.64342335 -302.54049511 163.92694883 -291.76416016 158.23168945 C-290.39873055 157.50998982 -289.03333302 156.78822948 -287.66796875 156.06640625 C-287.00303406 155.71487991 -286.33809937 155.36335358 -285.65301514 155.00117493 C-279.12351067 151.54451869 -272.63843785 148.0088362 -266.16162109 144.45458984 C-259.42396605 140.7622594 -252.65053243 137.13918428 -245.87020874 133.52603149 C-235.53115694 128.01518685 -225.27798076 122.37520068 -215.10107422 116.56933594 C-208.41701275 112.76769506 -201.65886247 109.13972753 -194.83837891 105.58984375 C-188.8703264 102.47804755 -182.98126132 99.24177872 -177.10888672 95.95361328 C-170.87624987 92.46983933 -164.5985173 89.07382699 -158.3125 85.6875 C-150.4860364 81.46831059 -142.72006022 77.16058202 -135 72.75 C-125.07819595 67.08845462 -115.0125512 61.72622065 -104.90991211 56.39758301 C-96.3658955 51.88832433 -87.88317895 47.30425306 -79.5 42.5 C-70.43296831 37.30384291 -61.24216938 32.37460868 -52 27.5 C-40.55116504 21.46121908 -29.2137654 15.26588245 -17.98046875 8.83203125 C-14.32704945 6.74760091 -10.66559669 4.6787427 -6.98828125 2.63671875 C-6.08247314 2.13229248 -5.17666504 1.62786621 -4.2434082 1.1081543 C-2 0 -2 0 0 0 Z " fill="#2E3141" transform="translate(563,85)"/>
<path d="M0 0 C32.34 0 64.68 0 98 0 C98 157.74 98 315.48 98 478 C65.66 478 33.32 478 0 478 C0 320.26 0 162.52 0 0 Z " fill="#2E3141" transform="translate(76,84)"/>
<path d="M0 0 C1.612164 0.01665459 1.612164 0.01665459 3.25689697 0.03364563 C5.08834259 0.03421211 5.08834259 0.03421211 6.95678711 0.03479004 C8.2704425 0.06059647 9.5840979 0.08640289 10.93756104 0.11299133 C12.29946596 0.12232147 13.6613877 0.12943664 15.02331543 0.13442993 C18.60106055 0.15348485 22.1777843 0.20256992 25.75512695 0.25794983 C29.40824568 0.30917647 33.06153011 0.33195109 36.71490479 0.35713196 C43.87812992 0.41069246 51.04051465 0.49598412 58.20318604 0.60127258 C56.51426812 5.23834214 54.04254046 8.22755322 50.64068604 11.72627258 C45.99346601 16.62371684 41.64320549 21.65431694 37.41412354 26.92158508 C35.09383653 29.73380573 32.67247469 32.41924521 30.20318604 35.10127258 C26.90986905 38.67919721 23.75667282 42.31666924 20.70318604 46.10127258 C16.86599572 50.85722677 12.80933503 55.35632059 8.67193604 59.85127258 C6.259405 62.53864893 3.97062393 65.29092702 1.70318604 68.10127258 C-1.35030075 71.88587593 -4.50349698 75.52334795 -7.79681396 79.10127258 C-11.89802373 83.55745569 -15.74468847 88.16279027 -19.54681396 92.87471008 C-23.15370049 97.24555522 -26.96620441 101.42654207 -30.79681396 105.60127258 C-29.20748722 110.40621391 -26.49388622 114.05868188 -23.54681396 118.10127258 C-19.02970865 124.39999242 -14.63739029 130.76288309 -10.35931396 137.22627258 C-4.53596673 146.01179913 1.34945897 154.75317499 7.26568604 163.47627258 C7.71040253 164.13210327 8.15511902 164.78793396 8.61331177 165.46363831 C10.89688943 168.83111048 13.18099468 172.19822431 15.46539307 175.56513977 C18.13877215 179.50574301 20.81002517 183.44778343 23.48052979 187.39033508 C23.91283401 188.02851166 24.34513824 188.66668823 24.7905426 189.32420349 C26.95514431 192.51982887 29.11921458 195.71581263 31.28253174 198.91230774 C35.39761901 204.99150547 39.51785708 211.06704676 43.65386963 217.1320343 C45.61618233 220.01013545 47.57592424 222.88998243 49.53546143 225.76997375 C50.47411416 227.14796833 51.41403844 228.5250977 52.35528564 229.90132141 C53.65672965 231.80436532 54.95384157 233.71029279 56.25006104 235.61689758 C56.99094971 236.70261047 57.73183838 237.78832336 58.49517822 238.90693665 C60.20318604 241.60127258 60.20318604 241.60127258 61.20318604 244.60127258 C53.62584854 245.11498499 46.05033457 245.50374676 38.45947075 245.74114037 C34.9313634 245.85524367 31.41527615 246.00911889 27.894104 246.26094055 C5.28665237 247.83531861 5.28665237 247.83531861 -1.38534546 242.55119324 C-5.87975927 237.34699429 -8.83099694 231.46564576 -11.60565186 225.21186829 C-13.0729519 221.99607829 -14.8134227 219.31313424 -16.85540771 216.43330383 C-17.41373291 215.60161682 -17.97205811 214.76992981 -18.54730225 213.91304016 C-19.10401611 213.08828186 -19.66072998 212.26352356 -20.23431396 211.41377258 C-27.5318745 200.53365617 -34.73288079 189.59202299 -41.91522217 178.63563538 C-46.70726629 171.32573422 -51.50103806 164.01839387 -56.37884521 156.76533508 C-57.04126221 155.7800885 -57.7036792 154.79484192 -58.38616943 153.77973938 C-59.58285105 152.00495146 -60.78345066 150.23279642 -61.9887085 148.46382141 C-62.50159424 147.70351624 -63.01447998 146.94321106 -63.54290771 146.15986633 C-63.98304199 145.51332092 -64.42317627 144.86677551 -64.87664795 144.20063782 C-65.79681396 142.60127258 -65.79681396 142.60127258 -65.79681396 140.60127258 C-70.58709775 144.58280715 -74.92026658 148.6895077 -78.95306396 153.43721008 C-81.00425934 155.8447572 -83.11328087 158.19256132 -85.23431396 160.53877258 C-86.7576662 162.22399905 -88.27804785 163.91191183 -89.79681396 165.60127258 C-90.44340469 166.15287048 -91.08999542 166.70446838 -91.75617981 167.27278137 C-96.66644796 171.85174375 -98.35931358 175.31784061 -98.79681396 182.04878235 C-98.86541512 184.96568237 -98.83659104 187.87553942 -98.79681396 190.79267883 C-98.80434391 192.34925355 -98.81538795 193.90581485 -98.82977295 195.46234131 C-98.85805101 199.53164136 -98.83902221 203.59935623 -98.80969238 207.66859436 C-98.78441777 212.56552154 -98.81868551 217.46236024 -98.84281921 222.3592453 C-98.87277314 229.7741731 -98.82772221 237.18522581 -98.79681396 244.60127258 C-115.29681396 244.60127258 -131.79681396 244.60127258 -148.79681396 244.60127258 C-148.79681396 164.41127258 -148.79681396 84.22127258 -148.79681396 1.60127258 C-132.29681396 1.60127258 -115.79681396 1.60127258 -98.79681396 1.60127258 C-98.46681396 40.21127258 -98.13681396 78.82127258 -97.79681396 118.60127258 C-95.48681396 114.97127258 -93.17681396 111.34127258 -90.79681396 107.60127258 C-89.07139863 105.13532495 -87.34191725 102.70092127 -85.54681396 100.28877258 C-85.08355713 99.66196594 -84.62030029 99.0351593 -84.14300537 98.38935852 C-79.16250788 91.68710389 -74.01670881 85.11812286 -68.79681396 78.60127258 C-68.05947021 77.6795929 -67.32212646 76.75791321 -66.56243896 75.80830383 C-61.7065519 69.80933387 -56.67546252 63.97469009 -51.60296631 58.15937805 C-48.34942782 54.4212903 -45.16431912 50.64205256 -42.04681396 46.78877258 C-38.51490309 42.42544474 -34.8097446 38.26288779 -31.03118896 34.11299133 C-28.01666093 30.72428237 -25.183757 27.20124537 -22.33197021 23.67549133 C-18.73921602 19.31879249 -15.03038494 15.06621962 -11.31341553 10.81538391 C-10.7858667 10.2110553 -10.25831787 9.60672668 -9.71478271 8.98408508 C-9.24838379 8.4518634 -8.78198486 7.91964172 -8.30145264 7.37129211 C-6.67746949 5.53055753 -6.67746949 5.53055753 -5.08113098 3.02612305 C-2.79681396 0.60127258 -2.79681396 0.60127258 0 0 Z " fill="#2E3141" transform="translate(832.7968139648438,77.39872741699219)"/>
<path d="M0 0 C1.01578125 0.32355469 2.0315625 0.64710938 3.078125 0.98046875 C12.99818744 4.30070823 20.9509273 9.40361445 29 16 C29.60714844 16.46019531 30.21429687 16.92039063 30.83984375 17.39453125 C46.48307177 29.70337506 54.32954736 51.12692932 58 70 C58.185625 70.9075 58.37125 71.815 58.5625 72.75 C62.0168146 98.41062271 57.58941516 128.80908979 42.1875 150.125 C41.13973409 151.42864705 40.0761626 152.71969414 39 154 C38.37738281 154.77859375 37.75476562 155.5571875 37.11328125 156.359375 C23.46004882 172.61202136 4.85286483 181.43246311 -16 184 C-20.96207288 184.29050434 -25.90541344 184.32513883 -30.875 184.3125 C-32.13441406 184.32861328 -33.39382813 184.34472656 -34.69140625 184.36132812 C-58.3655446 184.37349366 -78.59104633 175.80761205 -95.6875 159.625 C-114.40080091 140.08096844 -120.6631026 113.32134264 -120.18359375 86.9765625 C-118.92759533 59.77217112 -111.40024238 35.51055673 -91.25 16.1875 C-82.80462569 8.96378361 -72.5437782 3.44286635 -62 0 C-60.97132813 -0.37125 -59.94265625 -0.7425 -58.8828125 -1.125 C-40.50704853 -6.81555917 -18.12502834 -6.43217469 0 0 Z " fill="#2F3242" transform="translate(1021,141)"/>
<path d="M0 0 C10.6847233 9.01904401 18.95691282 21.36137475 20.2089138 35.58302689 C20.30460719 39.09868897 20.30877181 42.60278542 20.27807617 46.11962891 C20.27722811 47.46098817 20.27770853 48.80234882 20.27940369 50.14370728 C20.28025809 53.7546949 20.26272336 57.36537846 20.24168181 60.97629595 C20.22282151 64.76123001 20.22115725 68.54617243 20.21760559 72.33114624 C20.20831242 79.48490522 20.18373596 86.63852529 20.15355712 93.79222333 C20.11992773 101.94222005 20.10350572 110.09222369 20.08847082 118.24227262 C20.05718365 134.99494235 20.00220611 151.74742094 19.9375 168.5 C4.4275 168.5 -11.0825 168.5 -27.0625 168.5 C-27.3925 160.58 -27.7225 152.66 -28.0625 144.5 C-29.17625 146.15 -30.29 147.8 -31.4375 149.5 C-39.52139975 160.57266551 -51.34241623 168.56923222 -64.96875 171.0234375 C-84.1447958 173.62731368 -105.47774467 172.92919445 -121.73828125 161.375 C-132.46732662 152.71963566 -139.61738875 142.25893109 -142.0625 128.5 C-143.49358035 111.98804287 -142.00448336 97.2507982 -132.0625 83.5 C-116.35139407 64.84103708 -88.72234253 62.15214925 -66.22753906 59.83837891 C-47.16489036 58.71879347 -47.16489036 58.71879347 -30.9375 50.3125 C-29.01090845 44.1198843 -29.45246424 39.16838778 -32.125 33.25 C-35.22269727 27.61464112 -38.83826007 24.85024056 -44.68359375 22.40234375 C-55.11746738 19.61595669 -67.97647516 20.10837261 -77.64453125 24.94921875 C-83.9397697 28.98671417 -87.6967103 33.9030522 -91.0625 40.5 C-100.83488257 40.97767247 -110.10454576 39.18016495 -119.6875 37.5 C-121.37617223 37.21017989 -123.06497358 36.92111105 -124.75390625 36.6328125 C-128.85831137 35.93053141 -132.9608332 35.21809408 -137.0625 34.5 C-134.1439827 18.92665343 -124.35183337 6.8859491 -111.90625 -2.62109375 C-80.00177168 -23.70083836 -30.73957928 -22.6284634 0 0 Z " fill="#2F3242" transform="translate(2180.0625,153.5)"/>
<path d="M0 0 C18.88323093 14.75333586 28.51686947 36.53185972 31.84375 59.87890625 C32.77361967 69.74395417 32.77828891 80.0840765 32.15234375 89.96875 C31.15234375 90.96875 31.15234375 90.96875 29.09274197 91.09179783 C28.17924512 91.09087604 27.26574827 91.08995424 26.3245697 91.08900452 C25.27983994 91.09037918 24.23511017 91.09175385 23.15872192 91.09317017 C22.00282562 91.08957489 20.84692932 91.08597961 19.65600586 91.08227539 C18.44641708 91.08242142 17.23682831 91.08256744 15.99058533 91.0827179 C12.66428024 91.08213893 9.33803656 91.07710973 6.01174235 91.07014394 C2.53904446 91.06390978 -0.93365418 91.06330655 -4.40635681 91.06211853 C-10.98661818 91.0590054 -17.56686301 91.05079225 -24.14711708 91.04076904 C-31.63671737 91.02960734 -39.12631843 91.02409731 -46.61592495 91.01907361 C-62.02651164 91.00860962 -77.43708182 90.99101053 -92.84765625 90.96875 C-92.41598947 93.50070352 -91.97297844 96.02980447 -91.5234375 98.55859375 C-91.3441571 99.62080139 -91.3441571 99.62080139 -91.16125488 100.70446777 C-89.94332114 107.46234895 -87.46138689 113.12221804 -83.84765625 118.96875 C-83.44160156 119.64421875 -83.03554687 120.3196875 -82.6171875 121.015625 C-77.80907832 127.7025953 -67.80724427 132.3000035 -59.84765625 133.96875 C-46.50486044 134.77540069 -35.29370901 134.24687041 -24.49609375 125.4765625 C-20.81950446 122.11361589 -18.30518484 118.26942502 -15.84765625 113.96875 C-7.74594451 114.72045521 0.23904292 116.09392716 8.24780273 117.49780273 C10.60729333 117.90929317 12.96858395 118.30917406 15.33007812 118.70898438 C16.83215509 118.97064423 18.33411295 119.23298899 19.8359375 119.49609375 C20.54108994 119.6138768 21.24624237 119.73165985 21.97276306 119.85301208 C26.92380164 120.74020789 26.92380164 120.74020789 29.15234375 122.96875 C21.67606042 142.51956171 10.19035294 155.53507702 -8.78125 164.62109375 C-23.01367529 170.87610868 -37.15585648 172.39305492 -52.59765625 172.34375 C-53.30109161 172.3425415 -54.00452698 172.34133301 -54.72927856 172.34008789 C-75.87884634 172.24161587 -95.65670331 167.33391463 -111.84765625 152.96875 C-112.72550781 152.30166016 -112.72550781 152.30166016 -113.62109375 151.62109375 C-127.1055586 141.15690497 -134.74291081 124.08367654 -138.84765625 107.96875 C-139.14671875 106.855 -139.44578125 105.74125 -139.75390625 104.59375 C-146.22677305 77.26386797 -142.02725584 46.10717343 -127.84765625 21.96875 C-117.35125447 5.91569646 -103.00007467 -5.69647101 -84.84765625 -12.03125 C-83.72488281 -12.42570313 -82.60210938 -12.82015625 -81.4453125 -13.2265625 C-54.63619686 -21.27211032 -22.7559391 -16.23194559 0 0 Z " fill="#2F3242" transform="translate(1792.84765625,153.03125)"/>
<path d="M0 0 C18.88323093 14.75333586 28.51686947 36.53185972 31.84375 59.87890625 C32.77361967 69.74395417 32.77828891 80.0840765 32.15234375 89.96875 C31.15234375 90.96875 31.15234375 90.96875 29.09274197 91.09179783 C28.17924512 91.09087604 27.26574827 91.08995424 26.3245697 91.08900452 C25.27983994 91.09037918 24.23511017 91.09175385 23.15872192 91.09317017 C22.00282562 91.08957489 20.84692932 91.08597961 19.65600586 91.08227539 C18.44641708 91.08242142 17.23682831 91.08256744 15.99058533 91.0827179 C12.66428024 91.08213893 9.33803656 91.07710973 6.01174235 91.07014394 C2.53904446 91.06390978 -0.93365418 91.06330655 -4.40635681 91.06211853 C-10.98661818 91.0590054 -17.56686301 91.05079225 -24.14711708 91.04076904 C-31.63671737 91.02960734 -39.12631843 91.02409731 -46.61592495 91.01907361 C-62.02651164 91.00860962 -77.43708182 90.99101053 -92.84765625 90.96875 C-92.41598947 93.50070352 -91.97297844 96.02980447 -91.5234375 98.55859375 C-91.3441571 99.62080139 -91.3441571 99.62080139 -91.16125488 100.70446777 C-89.94332114 107.46234895 -87.46138689 113.12221804 -83.84765625 118.96875 C-83.44160156 119.64421875 -83.03554687 120.3196875 -82.6171875 121.015625 C-77.80907832 127.7025953 -67.80724427 132.3000035 -59.84765625 133.96875 C-46.50486044 134.77540069 -35.29370901 134.24687041 -24.49609375 125.4765625 C-20.81950446 122.11361589 -18.30518484 118.26942502 -15.84765625 113.96875 C-7.74594451 114.72045521 0.23904292 116.09392716 8.24780273 117.49780273 C10.60729333 117.90929317 12.96858395 118.30917406 15.33007812 118.70898438 C16.83215509 118.97064423 18.33411295 119.23298899 19.8359375 119.49609375 C20.54108994 119.6138768 21.24624237 119.73165985 21.97276306 119.85301208 C26.92380164 120.74020789 26.92380164 120.74020789 29.15234375 122.96875 C21.67606042 142.51956171 10.19035294 155.53507702 -8.78125 164.62109375 C-23.01367529 170.87610868 -37.15585648 172.39305492 -52.59765625 172.34375 C-53.30109161 172.3425415 -54.00452698 172.34133301 -54.72927856 172.34008789 C-75.87884634 172.24161587 -95.65670331 167.33391463 -111.84765625 152.96875 C-112.72550781 152.30166016 -112.72550781 152.30166016 -113.62109375 151.62109375 C-127.1055586 141.15690497 -134.74291081 124.08367654 -138.84765625 107.96875 C-139.14671875 106.855 -139.44578125 105.74125 -139.75390625 104.59375 C-146.22677305 77.26386797 -142.02725584 46.10717343 -127.84765625 21.96875 C-117.35125447 5.91569646 -103.00007467 -5.69647101 -84.84765625 -12.03125 C-83.72488281 -12.42570313 -82.60210938 -12.82015625 -81.4453125 -13.2265625 C-54.63619686 -21.27211032 -22.7559391 -16.23194559 0 0 Z " fill="#2F3242" transform="translate(1593.84765625,153.03125)"/>
<path d="M0 0 C14.40113251 10.09481333 23.33458331 24.58079607 26.52903748 41.86195374 C27.3028146 47.45511478 27.13054231 53.09381104 27.11352539 58.72827148 C27.11367142 59.99725784 27.11381744 61.2662442 27.1139679 62.57368469 C27.11425363 66.03598401 27.10839309 69.49824836 27.10139394 72.96053958 C27.09512313 76.58534996 27.09455366 80.21016123 27.09336853 83.8349762 C27.09026618 90.69128204 27.08206761 97.54757185 27.07201904 104.40387064 C27.06082381 112.21283018 27.05533887 120.0217905 27.05032361 127.83075607 C27.03988404 143.88718156 27.02155223 159.94358499 27 176 C10.83 176 -5.34 176 -22 176 C-22.0093457 172.54885742 -22.01869141 169.09771484 -22.02832031 165.54199219 C-22.06216097 154.11061913 -22.11755068 142.67940613 -22.18390274 131.24818039 C-22.22359135 124.32072345 -22.25603517 117.39337844 -22.27099609 110.46582031 C-22.28546826 103.77424767 -22.32069521 97.08307207 -22.36830902 90.39163971 C-22.38309063 87.84495316 -22.39103915 85.29821704 -22.39188385 82.75148773 C-22.39426484 79.17086736 -22.4214377 75.59119746 -22.45410156 72.01074219 C-22.4490712 70.96919983 -22.44404083 69.92765747 -22.43885803 68.85455322 C-22.57000886 59.49827294 -24.64821412 49.18754718 -31 42 C-37.19517363 36.63616401 -42.8238627 33.70373639 -51 33 C-51.81339844 32.91878906 -52.62679688 32.83757812 -53.46484375 32.75390625 C-62.61791016 32.27673217 -71.15253984 35.45802446 -78.21875 41.25 C-86.6618379 49.54496355 -89.28666901 59.97989914 -89.4367218 71.53974915 C-89.43528671 72.55683456 -89.43385162 73.57391998 -89.43237305 74.62182617 C-89.4425647 75.72558594 -89.45275635 76.8293457 -89.46325684 77.96655273 C-89.493189 81.57541104 -89.50262259 85.18400305 -89.51171875 88.79296875 C-89.52858007 91.3107439 -89.54673225 93.82851071 -89.56611633 96.3462677 C-89.60863812 102.27096866 -89.63824688 108.19564286 -89.66143972 114.12044269 C-89.69605358 122.72438278 -89.75715242 131.32814331 -89.81494904 139.93195343 C-89.89328453 151.95461877 -89.94402575 163.97711614 -90 176 C-106.17 176 -122.34 176 -139 176 C-139 115.61 -139 55.22 -139 -7 C-123.49 -7 -107.98 -7 -92 -7 C-91.67 3.89 -91.34 14.78 -91 26 C-87.535 20.06 -87.535 20.06 -84 14 C-63.69911742 -11.00833362 -27.89990479 -17.78335394 0 0 Z " fill="#2E3141" transform="translate(1391,146)"/>
<path d="M0 0 C17.49 0 34.98 0 53 0 C58.347458 16.32884496 63.68533343 32.66049811 69 49 C69.37064575 50.13880615 69.7412915 51.2776123 70.12316895 52.45092773 C72.2911962 59.11476391 74.45110382 65.78114677 76.60058594 72.45098877 C77.27183888 74.53077707 77.94526257 76.60986629 78.62109375 78.68817139 C84.53763337 96.8940796 89.57484521 115.2665375 93.79318237 133.94039917 C94.60709791 137.5680965 94.60709791 137.5680965 96 141 C96.1451001 140.30777344 96.2902002 139.61554688 96.43969727 138.90234375 C103.93934584 103.42289995 115.50972441 69.28274752 127.04492188 34.9543457 C129.51480018 27.56475849 131.80798975 20.14510287 133.9296875 12.6484375 C135.17646701 8.39846648 136.59940324 4.20179027 138 0 C155.16 0 172.32 0 190 0 C188.87504268 6.74974394 188.87504268 6.74974394 187.59570312 10.17382812 C187.30959167 10.94776413 187.02348022 11.72170013 186.72869873 12.51908875 C186.41604065 13.34810196 186.10338257 14.17711517 185.78125 15.03125 C185.45199524 15.91750565 185.12274048 16.80376129 184.7835083 17.71687317 C183.6939165 20.64643752 182.59688271 23.57315858 181.5 26.5 C180.72631418 28.57685338 179.9532122 30.65392433 179.18066406 32.73120117 C177.57781158 37.03959483 175.97245984 41.34704441 174.36523438 45.65380859 C171.14919983 54.276356 167.96027034 62.90887916 164.77297974 71.54208374 C163.74109184 74.33662492 162.70841834 77.13087465 161.67553711 79.92504883 C157.64858271 90.82014445 153.62847009 101.71775048 149.61328125 112.6171875 C149.38296329 113.24239225 149.15264534 113.86759701 148.91534805 114.51174736 C146.4366705 121.24039901 143.95869105 127.96930738 141.48144531 134.69848633 C139.41649169 140.30752227 137.34881394 145.91554993 135.28057861 151.52337646 C134.14973405 154.59348929 133.02160042 157.66457519 131.89465809 160.73612118 C131.19366251 162.64556012 130.49142132 164.55453569 129.78868103 166.46333313 C128.90075418 168.87545426 128.01490436 171.28834122 127.13136292 173.70207214 C126.73537399 174.77596695 126.33938507 175.84986176 125.93139648 176.95629883 C125.58173325 177.90837723 125.23207001 178.86045563 124.87181091 179.84138489 C124 182 124 182 123 183 C121.2507128 183.09365006 119.49763746 183.11744438 117.74584961 183.11352539 C116.62476303 183.11344986 115.50367645 183.11337433 114.34861755 183.11329651 C112.51896202 183.10555458 112.51896202 183.10555458 110.65234375 183.09765625 C109.41078018 183.0962413 108.16921661 183.09482635 106.89002991 183.09336853 C103.58394509 183.08870591 100.27792854 183.07971497 96.97186279 183.06866455 C93.6003885 183.05844827 90.22890717 183.05387045 86.85742188 183.04882812 C80.23826225 183.03777395 73.61913507 183.02101736 67 183 C63.48783104 174.76744215 60.26302094 166.4666274 57.21875 158.05078125 C56.53408742 156.16951011 55.84942279 154.28823972 55.16467762 152.40699863 C54.4402684 150.41527224 53.71718153 148.42307038 52.99447632 146.4307251 C50.68920553 140.07620213 48.374961 133.72494474 46.06142235 127.37342834 C45.53207801 125.92006496 45.0028338 124.4666651 44.47368813 123.01322937 C39.08195969 108.20345789 33.64232821 93.41165449 28.1875 78.625 C27.32912287 76.29657162 26.4708055 73.96812122 25.61254883 71.63964844 C22.19123854 62.35878231 18.76842743 53.07847492 15.33984375 43.80029297 C13.19048912 37.98384511 11.04405255 32.16632808 8.89956665 26.3480835 C8.09736281 24.17352677 7.29397443 21.99940662 6.48934937 19.82574463 C5.38971901 16.85494969 4.29400191 13.88274019 3.19921875 10.91015625 C2.87223999 10.02984238 2.54526123 9.1495285 2.20837402 8.24253845 C1.91491089 7.44328445 1.62144775 6.64403046 1.3190918 5.82055664 C1.06266403 5.1264418 0.80623627 4.43232697 0.54203796 3.71717834 C0 2 0 2 0 0 Z " fill="#2F3242" transform="translate(1835,139)"/>
<path d="M0 0 C0.91201172 -0.00128906 1.82402344 -0.00257813 2.76367188 -0.00390625 C3.70919922 -0.00003906 4.65472656 0.00382813 5.62890625 0.0078125 C6.57056641 0.00394531 7.51222656 0.00007812 8.48242188 -0.00390625 C9.85237305 -0.00197266 9.85237305 -0.00197266 11.25 0 C12.07814209 0.00112793 12.90628418 0.00225586 13.75952148 0.00341797 C16.19140625 0.1328125 16.19140625 0.1328125 21.19140625 1.1328125 C21.19140625 15.6528125 21.19140625 30.1728125 21.19140625 45.1328125 C15.74640625 44.6378125 15.74640625 44.6378125 10.19140625 44.1328125 C-0.10189068 43.60249906 -9.43292194 43.22247702 -18.80859375 48.1328125 C-19.60652344 48.5453125 -20.40445312 48.9578125 -21.2265625 49.3828125 C-29.47633712 54.24700122 -34.24905975 61.56139741 -37.1652317 70.5336895 C-38.30578648 75.14142502 -38.24764769 79.71092075 -38.2409668 84.43579102 C-38.25115845 85.52950516 -38.2613501 86.6232193 -38.27185059 87.75007629 C-38.3018583 91.33734339 -38.31122805 94.9243429 -38.3203125 98.51171875 C-38.3371682 101.00993224 -38.35531963 103.5081373 -38.37471008 106.0063324 C-38.41728286 111.89214737 -38.44686272 117.77791358 -38.47003347 123.66383451 C-38.50460342 132.20800337 -38.56571677 140.75199056 -38.62354279 149.29602814 C-38.70194993 161.24160606 -38.75263701 173.18701331 -38.80859375 185.1328125 C-54.97859375 185.1328125 -71.14859375 185.1328125 -87.80859375 185.1328125 C-87.80859375 124.7428125 -87.80859375 64.3528125 -87.80859375 2.1328125 C-71.96859375 2.1328125 -56.12859375 2.1328125 -39.80859375 2.1328125 C-39.47859375 12.0328125 -39.14859375 21.9328125 -38.80859375 32.1328125 C-36.82859375 27.6778125 -36.82859375 27.6778125 -34.80859375 23.1328125 C-28.71938414 11.99156635 -19.19254873 4.26656839 -6.93823242 0.56835938 C-4.57480704 0.08499919 -2.41201118 0.00328964 0 0 Z " fill="#2E3141" transform="translate(1201.80859375,136.8671875)"/>
<path d="M0 0 C12.68148897 8.64411697 21.29726183 20.42122311 24.65234375 35.5390625 C26.24120116 48.18371938 26.64630489 62.20877538 22.12109375 74.26953125 C21.83105469 75.05972656 21.54101562 75.84992188 21.2421875 76.6640625 C16.1230992 89.23688607 7.52500066 99.49100434 -4.87890625 105.26953125 C-11.74066822 107.85907789 -18.00849506 108.76235735 -25.31640625 108.64453125 C-26.23728027 108.63365479 -27.1581543 108.62277832 -28.10693359 108.61157227 C-42.19595184 108.28134143 -52.8046024 103.88285537 -62.69140625 93.58203125 C-75.2127436 78.71294315 -78.41379455 60.14013023 -76.87890625 41.26953125 C-75.24405539 27.81120541 -69.14219998 14.32431763 -58.87890625 5.26953125 C-55.36882033 2.58754779 -51.77011127 0.35564949 -47.87890625 -1.73046875 C-47.09515625 -2.16617187 -46.31140625 -2.601875 -45.50390625 -3.05078125 C-31.99982787 -9.24015051 -12.49327646 -7.5095271 0 0 Z " fill="#313443" transform="translate(1616.87890625,456.73046875)"/>
<path d="M0 0 C12.68148897 8.64411697 21.29726183 20.42122311 24.65234375 35.5390625 C26.24120116 48.18371938 26.64630489 62.20877538 22.12109375 74.26953125 C21.83105469 75.05972656 21.54101562 75.84992188 21.2421875 76.6640625 C16.1230992 89.23688607 7.52500066 99.49100434 -4.87890625 105.26953125 C-11.74066822 107.85907789 -18.00849506 108.76235735 -25.31640625 108.64453125 C-26.23728027 108.63365479 -27.1581543 108.62277832 -28.10693359 108.61157227 C-42.19595184 108.28134143 -52.8046024 103.88285537 -62.69140625 93.58203125 C-75.2127436 78.71294315 -78.41379455 60.14013023 -76.87890625 41.26953125 C-75.24405539 27.81120541 -69.14219998 14.32431763 -58.87890625 5.26953125 C-55.36882033 2.58754779 -51.77011127 0.35564949 -47.87890625 -1.73046875 C-47.09515625 -2.16617187 -46.31140625 -2.601875 -45.50390625 -3.05078125 C-31.99982787 -9.24015051 -12.49327646 -7.5095271 0 0 Z " fill="#313443" transform="translate(1190.87890625,456.73046875)"/>
<path d="M0 0 C41.91 0 83.82 0 127 0 C127 8.91 127 17.82 127 27 C111.49 27 95.98 27 80 27 C80 69.24 80 111.48 80 155 C69.44 155 58.88 155 48 155 C48 112.76 48 70.52 48 27 C32.16 27 16.32 27 0 27 C0 18.09 0 9.18 0 0 Z " fill="#2F3242" transform="translate(737,408)"/>
<path d="M0 0 C0.98548828 -0.00773437 1.97097656 -0.01546875 2.98632812 -0.0234375 C17.31352253 0.01454048 31.03030176 4.16339477 41.5625 14.25 C50.75526857 24.20883262 54.5625 34.7237707 54.5625 48.25 C48.2925 48.25 42.0225 48.25 35.5625 48.25 C35.211875 46.47625 34.86125 44.7025 34.5 42.875 C32.52415048 35.15370789 29.47390258 29.00143075 22.8359375 24.33203125 C15.19824926 19.99851811 8.9500404 19.05406911 0.3125 19 C-0.49574219 18.979375 -1.30398438 18.95875 -2.13671875 18.9375 C-11.76689615 18.87586686 -20.10794111 21.93394725 -27.4375 28.25 C-31.76513916 33.75790439 -32.96750672 39.80019476 -32.81640625 46.66015625 C-32.12017705 51.41891874 -30.05116502 54.1580941 -26.4375 57.25 C-16.96856113 63.48469226 -6.56788145 66.09927582 4.33056641 68.70898438 C43.71321859 78.25524966 43.71321859 78.25524966 53.3828125 93.16015625 C53.77210937 93.84980469 54.16140625 94.53945313 54.5625 95.25 C54.97242188 95.92933594 55.38234375 96.60867188 55.8046875 97.30859375 C60.57537953 106.80062582 60.24714569 120.40865241 57 130.375 C51.84893958 142.00991269 42.23814999 150.46749259 30.5625 155.25 C21.40521293 158.68388156 13.24864133 159.85363957 3.5 159.6875 C2.32373047 159.69458984 1.14746094 159.70167969 -0.06445312 159.70898438 C-16.2675586 159.59254415 -30.4221152 154.93661877 -42.25 143.6015625 C-52.13099765 132.97949003 -55.60628252 121.4277318 -55.4375 107.25 C-48.8375 107.25 -42.2375 107.25 -35.4375 107.25 C-35.39625 108.6525 -35.355 110.055 -35.3125 111.5 C-34.45071884 119.82268111 -30.78220306 127.47672144 -24.6875 133.25 C-14.04977769 141.60529913 -0.44397168 142.35725472 12.5625 141.25 C21.70683171 139.46200218 28.64239316 135.47958896 34.9375 128.6875 C39.0507512 122.5176232 39.44852155 116.49841037 38.5625 109.25 C36.20978589 102.38601368 30.87128593 98.39097002 24.5625 95.25 C16.80305685 92.08532818 8.92965925 90.03285331 0.75 88.3125 C-15.38809679 84.91390856 -34.2059753 80.19813328 -45.4375 67.25 C-52.22236714 56.82085924 -53.53400064 47.49093438 -52.4375 35.25 C-49.56262759 22.46947911 -41.23621904 13.25998763 -30.4375 6.25 C-26.85031003 4.59672895 -23.2313507 3.33911904 -19.4375 2.25 C-18.24125 1.89035156 -17.045 1.53070313 -15.8125 1.16015625 C-10.57204203 -0.12199801 -5.36756266 -0.0419614 0 0 Z " fill="#303343" transform="translate(1033.4375,405.75)"/>
<path d="M0 0 C10.78104028 6.21983093 17.35991769 15.78673542 20.6875 27.5625 C25.18217538 44.46147502 25.4622118 65.62200092 19 82 C18.63777344 82.92425781 18.27554687 83.84851563 17.90234375 84.80078125 C13.2976199 95.08726606 6.44803439 101.84305559 -4 106 C-11.5876521 108.52921737 -22.63300235 108.07291332 -30.05078125 105.03515625 C-41.93171223 98.72564381 -48.17395943 88.24818122 -52.0859375 75.7265625 C-54.11269121 68.49164316 -54.61495423 61.54017396 -54.52148438 54.04101562 C-54.500001 52.000095 -54.52143817 49.96269145 -54.546875 47.921875 C-54.57872208 32.62308848 -50.57716608 17.20699283 -39.95703125 5.75390625 C-29.18409469 -3.90088121 -13.06718911 -6.31760796 0 0 Z " fill="#FDFDFE" transform="translate(1006,179)"/>
<path d="M0 0 C10.56 0 21.12 0 32 0 C32 51.15 32 102.3 32 155 C21.44 155 10.88 155 0 155 C0 103.85 0 52.7 0 0 Z " fill="#2F3241" transform="translate(685,408)"/>
<path d="M0 0 C0.83789062 -0.00322266 1.67578125 -0.00644531 2.5390625 -0.00976562 C14.12994561 0.08891836 24.66179782 2.9509444 33.3125 11 C40.05839444 18.27846505 42.57976028 25.50690654 43 35.3125 C37.06 35.3125 31.12 35.3125 25 35.3125 C24.5875 33.930625 24.175 32.54875 23.75 31.125 C21.63894227 24.88956098 18.87623134 21.41105723 13.03759766 18.16577148 C9.43557866 16.65737748 5.92153316 16.67630178 2.0625 16.75 C1.26634277 16.75950684 0.47018555 16.76901367 -0.35009766 16.77880859 C-6.29896036 16.9906121 -10.75601177 17.85748473 -15 22.3125 C-17.85587302 25.59675397 -18.88491324 27.50689271 -19.5 31.8125 C-18.89020665 36.08105344 -17.82160438 38.05680264 -15 41.3125 C-10.25238743 44.36910246 -6.1828056 46.00665586 -0.625 47.25 C0.77931761 47.57917842 2.18294383 47.91131748 3.5859375 48.24609375 C4.30749023 48.41737793 5.02904297 48.58866211 5.77246094 48.76513672 C33.64467676 55.61405253 33.64467676 55.61405253 41.546875 66.4296875 C46.31908985 74.60679722 46.38776613 84.00198024 44.0625 93.0625 C40.11188005 102.83891895 32.40396605 108.25138887 23.015625 112.25390625 C10.27239509 116.72724214 -8.16421311 116.70457573 -20.40625 110.86328125 C-30.30215008 104.94660605 -36.25394178 98.97171502 -39.51953125 87.83984375 C-40 85.3125 -40 85.3125 -40 79.3125 C-34.06 79.3125 -28.12 79.3125 -22 79.3125 C-21.46375 81.024375 -20.9275 82.73625 -20.375 84.5 C-17.80009136 91.51347492 -15.11955111 93.72535996 -8.4375 97.125 C0.00166934 99.93267775 8.91389416 99.13791243 16.90625 95.453125 C21.04847175 93.19654151 24.54334116 90.94732358 26 86.3125 C26.4540225 81.31825247 26.19207216 78.24938899 23 74.3125 C15.08270065 67.90325767 4.53331222 66.39530111 -5.18359375 64.29492188 C-17.38557799 61.5266303 -27.48485352 56.61735995 -35 46.3125 C-38.85591895 39.9176485 -38.78367778 32.56151943 -38 25.3125 C-35.86756368 17.01123004 -30.18001771 10.20802975 -23.125 5.5 C-15.56777474 1.28568825 -8.60691713 -0.16551764 0 0 Z " fill="#313443" transform="translate(1834,450.6875)"/>
<path d="M0 0 C5.94 0 11.88 0 18 0 C18.01458252 2.19454834 18.02916504 4.38909668 18.04418945 6.65014648 C18.09467966 13.92653574 18.16129968 21.20271423 18.23571491 28.47889614 C18.28031322 32.88752325 18.31959214 37.29606019 18.34643555 41.70483398 C18.37257425 45.96495682 18.41305015 50.2247307 18.46318626 54.48463631 C18.47978388 56.10435689 18.49134218 57.72413772 18.49761391 59.3439312 C18.52432374 75.2701832 18.52432374 75.2701832 26 89 C33.58338071 94.73303582 41.79315069 95.09917478 51 94 C58.55619862 91.91224246 64.19550789 87.94576698 68.10546875 81.07421875 C70.45902486 75.61684629 71.25652291 70.50641055 71.31884766 64.59594727 C71.32889328 63.892668 71.3389389 63.18938873 71.34928894 62.46479797 C71.37991174 60.16534157 71.39709709 57.86600042 71.4140625 55.56640625 C71.43279104 53.96214317 71.45236569 52.35788977 71.4727478 50.75364685 C71.52389711 46.55011724 71.56361441 42.34655576 71.60089111 38.1428833 C71.64103911 33.84582749 71.692082 29.54890232 71.7421875 25.25195312 C71.83874297 16.83471843 71.92220432 8.41742901 72 0 C77.94 0 83.88 0 90 0 C90 36.3 90 72.6 90 110 C84.06 110 78.12 110 72 110 C71.67 106.04 71.34 102.08 71 98 C70.05125 99.051875 69.1025 100.10375 68.125 101.1875 C60.87827887 108.44892037 50.99223626 112.28031959 40.8125 112.3125 C28.8654191 112.11357701 19.98303057 109.29317473 11.0625 101.25390625 C2.85002659 92.74054481 -0.17192465 81.82741906 -0.11352539 70.2722168 C-0.11367142 69.51070816 -0.11381744 68.74919952 -0.1139679 67.96461487 C-0.11327387 65.45945338 -0.1055054 62.95436718 -0.09765625 60.44921875 C-0.09579026 58.70758607 -0.09436721 56.96595286 -0.09336853 55.22431946 C-0.08955762 50.64914491 -0.07973953 46.0740023 -0.06866455 41.49884033 C-0.05841975 36.82670524 -0.05386434 32.15456497 -0.04882812 27.48242188 C-0.03811595 18.32159832 -0.02053072 9.16080682 0 0 Z " fill="#2F3242" transform="translate(1299,453)"/>
<path d="M0 0 C8.42612953 5.81387009 14.07932403 14.63647146 16.21429443 24.6100769 C17.16942723 31.52849761 16.86845519 38.58387461 16.82421875 45.5546875 C16.82048301 47.29060197 16.81763869 49.02651857 16.81564331 50.76243591 C16.80805099 55.30471745 16.78844088 59.84686865 16.76623535 64.38909912 C16.74568153 69.03477211 16.7366213 73.68046641 16.7265625 78.32617188 C16.70519034 87.42194113 16.67004466 96.5175799 16.62890625 105.61328125 C10.68890625 105.61328125 4.74890625 105.61328125 -1.37109375 105.61328125 C-1.38043945 103.39367676 -1.38978516 101.17407227 -1.39941406 98.88720703 C-1.43330288 91.52298704 -1.48891739 84.15904376 -1.55499649 76.79504585 C-1.59437084 72.33372736 -1.62660824 67.87260327 -1.64208984 63.41113281 C-1.65732303 59.09906525 -1.69188524 54.78753253 -1.73940277 50.47570419 C-1.75414829 48.83727565 -1.76213081 47.19877071 -1.7629776 45.56027603 C-1.77362616 35.2798802 -2.09206243 26.23715098 -8.55859375 17.73828125 C-16.90988215 11.42841891 -24.97534835 10.34010689 -35.37109375 11.61328125 C-43.50239338 14.09169294 -47.96674931 18.40567847 -52.12109375 25.67578125 C-54.26875119 30.72277624 -54.50950248 35.33205019 -54.57641602 40.7902832 C-54.59126541 41.84476402 -54.59126541 41.84476402 -54.60641479 42.92054749 C-54.63785705 45.23085224 -54.66271843 47.54117751 -54.6875 49.8515625 C-54.70808447 51.45867937 -54.72908133 53.06579101 -54.75047302 54.67289734 C-54.80553954 58.89291127 -54.85501651 63.11297281 -54.90332031 67.33306885 C-54.95364826 71.64331271 -55.00927525 75.95348785 -55.06445312 80.26367188 C-55.17184598 88.71348501 -55.27284249 97.16335687 -55.37109375 105.61328125 C-61.31109375 105.61328125 -67.25109375 105.61328125 -73.37109375 105.61328125 C-73.37109375 69.31328125 -73.37109375 33.01328125 -73.37109375 -4.38671875 C-67.43109375 -4.38671875 -61.49109375 -4.38671875 -55.37109375 -4.38671875 C-55.04109375 -0.42671875 -54.71109375 3.53328125 -54.37109375 7.61328125 C-53.40171875 6.56140625 -52.43234375 5.50953125 -51.43359375 4.42578125 C-37.27671881 -9.70249394 -16.57400678 -9.69320001 0 0 Z " fill="#2F3242" transform="translate(1746.37109375,457.38671875)"/>
<path d="M0 0 C8.46083059 5.51856943 13.34871077 13.59135001 15.875 23.25 C18.52573196 36.8052401 17.77789435 51.47756395 10.5625 63.625 C5.47842988 70.76433251 -0.71458264 75.15648398 -9 78 C-19.04539611 79.08030098 -28.03291525 77.4083073 -36 71 C-43.43177375 64.43277264 -47.32393161 56.01329431 -48.27050781 46.19384766 C-48.44998383 43.06304402 -48.53186646 39.94821686 -48.5625 36.8125 C-48.57724365 35.81541016 -48.5919873 34.81832031 -48.60717773 33.79101562 C-48.45927996 23.05735663 -44.97255777 13.24175607 -38 5 C-27.03740543 -5.39399526 -13.43469362 -6.88068655 0 0 Z " fill="#FDFDFD" transform="translate(1607,471)"/>
<path d="M0 0 C8.46083059 5.51856943 13.34871077 13.59135001 15.875 23.25 C18.52573196 36.8052401 17.77789435 51.47756395 10.5625 63.625 C5.47842988 70.76433251 -0.71458264 75.15648398 -9 78 C-19.04539611 79.08030098 -28.03291525 77.4083073 -36 71 C-43.43177375 64.43277264 -47.32393161 56.01329431 -48.27050781 46.19384766 C-48.44998383 43.06304402 -48.53186646 39.94821686 -48.5625 36.8125 C-48.57724365 35.81541016 -48.5919873 34.81832031 -48.60717773 33.79101562 C-48.45927996 23.05735663 -44.97255777 13.24175607 -38 5 C-27.03740543 -5.39399526 -13.43469362 -6.88068655 0 0 Z " fill="#FDFDFD" transform="translate(1181,471)"/>
<path d="M0 0 C5.94 0 11.88 0 18 0 C18 9.9 18 19.8 18 30 C25.26 30 32.52 30 40 30 C40 35.28 40 40.56 40 46 C32.74 46 25.48 46 18 46 C18.10808932 55.31862026 18.2201856 64.63716866 18.33933926 73.95565414 C18.3945066 78.28258496 18.44791667 82.6095226 18.49731445 86.93652344 C18.54504933 91.11220374 18.59739537 95.28780308 18.65294075 99.46338654 C18.67332298 101.05656163 18.69204282 102.64975889 18.70907402 104.24297333 C18.73320966 106.47423815 18.76325142 108.70535105 18.79467773 110.93652344 C18.81799416 112.84180817 18.81799416 112.84180817 18.84178162 114.7855835 C18.98260592 118.49429329 18.98260592 118.49429329 20 122 C22.59257669 122.86419223 24.34037707 123.17580932 27.01171875 123.31640625 C27.76904297 123.35830078 28.52636719 123.40019531 29.30664062 123.44335938 C30.09232422 123.48267578 30.87800781 123.52199219 31.6875 123.5625 C32.88342773 123.62727539 32.88342773 123.62727539 34.10351562 123.69335938 C36.06881447 123.79927368 38.03438496 123.90012551 40 124 C40 129.28 40 134.56 40 140 C13.65395504 140.51157369 13.65395504 140.51157369 6 134 C1.00835394 127.71518138 -0.15443409 122.49187332 -0.11352539 114.56933594 C-0.11367142 113.82748047 -0.11381744 113.085625 -0.1139679 112.32128906 C-0.11327269 109.87562103 -0.10549866 107.43002969 -0.09765625 104.984375 C-0.09579068 103.28615358 -0.09436743 101.58793162 -0.09336853 99.88970947 C-0.08955432 95.42466745 -0.07973339 90.95965806 -0.06866455 86.49462891 C-0.05842687 81.93652793 -0.05386586 77.37842167 -0.04882812 72.8203125 C-0.03811014 63.8801917 -0.0205222 54.94010367 0 46 C-6.6 46 -13.2 46 -20 46 C-20 40.72 -20 35.44 -20 30 C-13.4 30 -6.8 30 0 30 C0 20.1 0 10.2 0 0 Z " fill="#303343" transform="translate(1433,423)"/>
<path d="M0 0 C5.94 0 11.88 0 18 0 C18 51.15 18 102.3 18 155 C12.06 155 6.12 155 0 155 C0 103.85 0 52.7 0 0 Z " fill="#2E3141" transform="translate(1247,408)"/>
<path d="M0 0 C1.15195938 30.55350729 1.15195938 30.55350729 -9.125 41.9375 C-17.40824976 49.59533661 -26.79805833 52.18705781 -37.75 52.25 C-38.63171875 52.270625 -39.5134375 52.29125 -40.421875 52.3125 C-49.20476702 52.36477912 -54.78195891 49.88034031 -61.265625 43.88671875 C-64.86537536 39.9707741 -65.86086149 36.25224662 -66.4375 31.0625 C-66.14770308 24.81979144 -63.34539355 19.94556194 -58.8125 15.75 C-50.23705459 9.10222824 -40.44386307 7.72052671 -30 6 C-26.97011917 5.4925499 -23.94094724 4.98135799 -20.91259766 4.46484375 C-18.87816492 4.11877549 -16.84269701 3.77872764 -14.80615234 3.4453125 C-13.86594238 3.28675781 -12.92573242 3.12820312 -11.95703125 2.96484375 C-11.12147705 2.8268335 -10.28592285 2.68882324 -9.42504883 2.54663086 C-6.1840348 1.81607308 -3.31860981 0 0 0 Z " fill="#FDFDFD" transform="translate(2151,238)"/>
<path d="M0 0 C10.2803214 8.36861078 13.80090941 18.68449088 15.62109375 31.42578125 C-9.78890625 31.42578125 -35.19890625 31.42578125 -61.37890625 31.42578125 C-58.47231022 17.86166646 -55.39213879 7.89749859 -44.37890625 -0.57421875 C-29.94202043 -8.62363359 -14.19670344 -9.39453446 0 0 Z " fill="#FDFDFD" transform="translate(1761.37890625,180.57421875)"/>
<path d="M0 0 C10.2803214 8.36861078 13.80090941 18.68449088 15.62109375 31.42578125 C-9.78890625 31.42578125 -35.19890625 31.42578125 -61.37890625 31.42578125 C-58.47231022 17.86166646 -55.39213879 7.89749859 -44.37890625 -0.57421875 C-29.94202043 -8.62363359 -14.19670344 -9.39453446 0 0 Z " fill="#FDFDFD" transform="translate(1562.37890625,180.57421875)"/>
<path d="M0 0 C5.94 0 11.88 0 18 0 C18 36.3 18 72.6 18 110 C12.06 110 6.12 110 0 110 C0 73.7 0 37.4 0 0 Z " fill="#2E3141" transform="translate(1494,453)"/>
<path d="M0 0 C22.44 0 44.88 0 68 0 C68 5.61 68 11.22 68 17 C45.56 17 23.12 17 0 17 C0 11.39 0 5.78 0 0 Z " fill="#2F3242" transform="translate(883,477)"/>
<path d="M0 0 C3.8026029 2.0050088 5.61790841 3.42686262 8 7 C8.77286121 11.7180481 8.42364132 15.19654232 6.1875 19.4375 C3.90277746 22.11388926 2.2738156 23.7917169 -1.26953125 24.37109375 C-5.75791286 24.48830187 -8.98845813 24.56577717 -12.5625 21.625 C-16.3057723 17.59378368 -16.39037018 14.90519941 -16.359375 9.55078125 C-15.78039966 5.44131496 -14.00085071 3.78650423 -11 1 C-7.53081128 -0.73459436 -3.79303468 -0.47173877 0 0 Z " fill="#313444" transform="translate(1507,408)"/>
</svg>
